PathFileType	4	(X/Y/Z)	Kaydara	
DataRate	CameraRate	NumFrames	NumMarkers	Units	OrigDataRate	OrigDataStartFrame	OrigNumFrames	
60.00	60.00	5	74	mm	60.00	2611	161	
Frame#	Time	Z_lasi			Z_rasi			Z_rpsi			Z_lpsi			Z_fneck			Z_bneck			Z_fhead			Z_rhead			Z_lhead			Z_rshld			Z_relbtop			Z_relbext			Z_relblow			Z_rwrext			Z_rwrtop			Z_rwrlow			Z_lshld			Z_lelbext			Z_lelblow			Z_lelbtop			Z_lwrext			Z_lwrtop			Z_rtopleg			Z_ltopleg			Z_rkneefr			Z_rkneebk			Z_rkneeis			Z_lkneefr			Z_lknssbk			Z_lkneeis			Z_rankfr			Z_rankis			Z_rankbk			Z_lankfr			Z_lankbk			Z_lankis			A_lasi			A_rasi			A_rpsi			A_lpsi			A_fneck			A_bneck			A_fhead			A_rhead			A_lhead			A_rshld			A_relbtop			A_relbext			A_relblow			A_rwrext			A_rwrtop			A_rwrlow			A_lshld			A_lelbext			A_lelblow			A_lelbtop			A_lwrext			A_lwrtop			A_lwrlow			A_rtopleg			A_ltopleg			A_rkneefr			A_rkneebk			A_rkneeis			A_lkneefr			A_lknssbk			A_lkneeis			A_rankfr			A_rankis			A_rankbk			A_lankfr			A_lankbk			A_lankis			Z_lwrlow			
		X1	Y1	Z1	X2	Y2	Z2	X3	Y3	Z3	X4	Y4	Z4	X5	Y5	Z5	X6	Y6	Z6	X7	Y7	Z7	X8	Y8	Z8	X9	Y9	Z9	X10	Y10	Z10	X11	Y11	Z11	X12	Y12	Z12	X13	Y13	Z13	X14	Y14	Z14	X15	Y15	Z15	X16	Y16	Z16	X17	Y17	Z17	X18	Y18	Z18	X19	Y19	Z19	X20	Y20	Z20	X21	Y21	Z21	X22	Y22	Z22	X23	Y23	Z23	X24	Y24	Z24	X25	Y25	Z25	X26	Y26	Z26	X27	Y27	Z27	X28	Y28	Z28	X29	Y29	Z29	X30	Y30	Z30	X31	Y31	Z31	X32	Y32	Z32	X33	Y33	Z33	X34	Y34	Z34	X35	Y35	Z35	X36	Y36	Z36	X37	Y37	Z37	X38	Y38	Z38	X39	Y39	Z39	X40	Y40	Z40	X41	Y41	Z41	X42	Y42	Z42	X43	Y43	Z43	X44	Y44	Z44	X45	Y45	Z45	X46	Y46	Z46	X47	Y47	Z47	X48	Y48	Z48	X49	Y49	Z49	X50	Y50	Z50	X51	Y51	Z51	X52	Y52	Z52	X53	Y53	Z53	X54	Y54	Z54	X55	Y55	Z55	X56	Y56	Z56	X57	Y57	Z57	X58	Y58	Z58	X59	Y59	Z59	X60	Y60	Z60	X61	Y61	Z61	X62	Y62	Z62	X63	Y63	Z63	X64	Y64	Z64	X65	Y65	Z65	X66	Y66	Z66	X67	Y67	Z67	X68	Y68	Z68	X69	Y69	Z69	X70	Y70	Z70	X71	Y71	Z71	X72	Y72	Z72	X73	Y73	Z73	X74	Y74	Z74	

1	43.500	-815.08759	1086.15181	-395.03910	-895.94872	1082.85950	-201.74006	-1088.62694	1117.09305	-252.10800	-991.31615	1118.78311	-478.09387	-894.50447	1440.61310	-263.37763	-976.40160	1508.98895	-335.55420	-879.98177	1651.73950	-166.86764	-1017.40822	1642.93030	-263.15632	-888.78777	1643.81714	-336.48415	-1068.87161	1420.99335	-141.51157	-1091.43280	1088.98003	-108.85161	-1167.67189	1081.00456	-129.02804	-1146.30470	1071.65352	-188.48965	-1114.04213	865.39955	-87.30572	-1070.42503	875.80132	-80.30954	-1059.46945	874.66270	-122.48949	-857.45125	1458.91830	-471.22799	-854.68292	1153.59268	-610.79830	-867.00203	1127.81036	-542.87235	-786.86478	1158.57132	-576.55098	-726.96159	916.00357	-540.82863	-714.02885	915.42290	-587.28104	-1084.87083	915.45944	-201.78432	-857.66197	899.04900	-495.31425	-974.82384	416.46687	-252.96329	-1062.04582	440.67051	-261.21778	-972.46880	435.93681	-348.55270	-763.55980	435.72289	-449.13589	-854.80690	466.68018	-496.04515	-827.66396	428.17844	-377.60792	-996.31516	176.75404	-286.45794	-970.40009	181.53400	-347.53349	-1053.70392	171.93632	-334.57996	-832.51900	176.83577	-496.72390	-911.84959	188.35892	-491.11855	-861.38580	183.24406	-432.82406	214.65622	1036.29372	284.37475	246.35616	1050.38216	130.85096	409.06788	1053.31390	151.64117	336.60076	1049.87892	322.12078	277.73312	1381.25366	231.98668	411.54289	1412.77496	255.97269	239.69803	1603.68881	188.10116	399.92798	1551.57455	151.73986	353.94699	1567.10709	307.81401	394.54807	1368.93875	71.25828	376.82430	1074.06181	20.17520	435.82626	1061.45493	45.40363	373.27187	1054.85779	77.74037	327.75673	831.14983	-14.83756	359.98573	829.35989	15.53877	297.00464	843.69102	10.29651	274.49734	1364.87183	391.58089	249.65340	1064.90959	444.12075	297.23997	1053.29865	432.62295	239.75576	1060.99228	391.05713	177.12564	842.17926	425.44987	140.58132	859.76830	402.22294	192.98325	847.24518	385.06878	378.60603	883.05504	59.00206	253.38848	885.20859	376.35536	377.92068	417.09030	205.29615	426.92818	456.20712	114.91092	329.35123	407.90234	106.38741	366.53423	455.53524	240.07612	335.21702	477.08790	355.66833	267.62949	424.06948	266.24775	387.61406	172.34236	99.57485	391.12732	165.72884	171.00697	463.70667	163.10007	127.52595	310.74169	169.93374	298.50771	358.91560	170.02962	349.70825	380.97252	176.40318	265.37954	-757.09236	908.85674	-603.55732 
2	43.517	-815.08530	1086.70151	-395.70053	-894.96170	1083.63686	-201.90332	-1088.11203	1117.05612	-251.82692	-991.82358	1118.62106	-478.06374	-895.08255	1441.18073	-264.69936	-977.37465	1509.21860	-336.71272	-880.17044	1652.56592	-168.74866	-1018.27385	1643.33603	-264.35139	-890.01610	1644.03488	-338.39535	-1068.76549	1421.60004	-142.00987	-1089.57260	1089.46609	-109.83435	-1166.29112	1080.97885	-128.70169	-1145.70580	1072.05284	-188.49964	-1109.89098	865.73921	-88.71917	-1066.20277	876.50253	-82.69095	-1056.03195	875.53391	-125.06678	-858.83621	1459.14749	-472.74376	-856.33377	1153.29063	-610.73315	-868.17566	1127.79762	-543.15674	-788.11790	1158.54752	-577.44843	-726.98990	916.09055	-542.52918	-715.19966	915.40627	-589.14284	-1083.63297	915.41664	-201.27859	-856.89148	899.24171	-494.41200	-974.10507	416.43440	-252.89015	-1061.34315	440.69443	-260.91183	-971.94977	435.97305	-348.45272	-763.80836	435.84076	-448.76534	-854.84924	466.72085	-496.14136	-828.00163	428.34347	-377.13364	-995.90576	176.66008	-286.45145	-970.11818	181.48321	-347.60002	-1053.40454	172.00840	-334.45580	-832.47498	176.85558	-496.89034	-911.78207	188.34045	-491.40057	-861.53534	183.19227	-432.58583	214.78275	1036.43471	285.22125	247.07052	1050.46837	131.01213	407.50717	1052.74193	155.17584	337.75688	1049.46396	322.76272	278.27633	1381.02692	232.36267	412.08611	1412.54822	256.34869	239.59551	1603.18619	189.19422	400.28557	1552.13150	153.28993	353.58093	1566.88995	309.17130	394.74312	1369.03809	72.04385	374.40704	1075.21278	19.86803	434.07753	1061.54396	42.64676	372.54650	1055.19997	77.22275	321.18019	832.68021	-14.70519	355.27412	830.90866	13.55170	291.82877	844.79782	12.16331	274.73810	1364.83749	392.04521	249.20887	1065.08163	444.55154	296.82499	1053.26454	433.34633	239.63533	1061.01173	391.40385	176.89474	842.15652	425.90393	140.24111	859.75143	402.50011	193.57380	846.46889	387.17056	378.81111	883.17101	60.03597	253.13412	884.99405	376.63200	377.66869	417.05357	205.48281	426.64619	456.17714	115.21521	329.05098	408.06969	106.70870	367.28462	455.56141	241.05515	335.73021	476.94420	356.67015	268.38236	423.96252	267.12219	387.43904	172.35506	99.76453	391.22902	165.69920	171.03268	463.58528	163.17379	127.64153	310.97729	169.91047	298.79465	359.06586	169.90150	350.09636	381.20323	176.32214	265.74661	-758.66432	908.67752	-604.07539 
3	43.533	-814.92256	1087.34032	-396.38153	-893.95081	1084.37843	-202.13356	-1087.50183	1116.86058	-251.46223	-992.08885	1118.42491	-478.15960	-895.47714	1441.85303	-266.06436	-978.27278	1509.48242	-338.02971	-879.83208	1653.74420	-171.42942	-1019.11278	1643.69781	-265.37725	-891.73698	1644.14322	-340.87372	-1068.44734	1421.90323	-142.71181	-1087.86385	1089.89227	-110.23339	-1164.61700	1080.88608	-128.09876	-1144.82674	1072.34703	-188.11934	-1105.54390	865.98000	-89.70337	-1061.96571	877.19536	-84.37389	-1052.33932	876.41739	-126.86551	-860.13603	1459.25415	-474.36329	-857.51266	1152.84904	-611.25923	-866.53770	1126.72615	-540.87624	-789.10034	1158.37372	-578.33092	-727.17743	915.98427	-543.57635	-716.18652	915.20416	-590.32150	-1082.65778	915.43358	-200.84810	-856.23528	899.47433	-494.26449	-973.07755	416.23196	-253.13591	-1060.62630	440.71590	-260.55752	-971.49223	435.99174	-348.37368	-764.53156	435.70724	-448.14243	-855.26543	466.53648	-496.31084	-828.54851	428.39523	-376.81358	-995.64880	176.62767	-286.42757	-969.83208	181.45525	-347.58560	-1053.12515	172.09618	-334.29550	-832.64572	176.67015	-496.59657	-912.08801	187.90869	-491.41865	-862.12830	182.52102	-432.78526	215.58744	1036.55823	285.89815	248.35775	1050.72250	132.21170	409.03507	1052.71866	155.93159	337.67731	1049.44801	324.15642	278.79980	1380.71594	232.89463	412.60960	1412.23724	256.88063	239.46270	1602.69302	190.35450	400.58998	1552.81052	154.74911	353.28663	1566.47415	310.59580	395.10838	1368.96194	72.87732	371.92005	1075.70518	18.57596	432.06329	1061.36772	39.53493	371.45679	1055.62027	75.97705	312.72795	834.81071	-14.77388	347.96494	832.75162	12.05007	285.42358	846.25549	14.61374	274.97181	1364.90250	392.35218	248.68250	1065.22949	444.88880	296.19690	1053.40538	434.04194	239.71067	1060.94109	391.68453	176.43059	842.29553	426.33141	139.98433	859.83780	402.71698	192.66954	847.27951	386.23173	380.38902	883.54576	59.99432	252.98248	884.89403	377.20394	377.45518	416.98704	205.74158	426.27953	456.15185	115.58722	328.77392	408.23536	106.90665	367.96200	455.60520	241.91704	336.00758	476.85635	357.66968	268.98407	423.95535	267.76161	387.31533	172.36317	99.91150	390.60726	165.66450	171.35229	463.48324	163.25270	127.74553	311.24672	169.91514	299.09956	359.21383	169.73083	350.37647	381.42357	176.34466	266.05005	-759.98840	908.35976	-604.50123 
4	43.550	-814.57970	1087.85301	-396.77872	-892.92542	1085.09003	-202.34283	-1086.96320	1116.96899	-251.85831	-992.10075	1118.11241	-478.34717	-895.75302	1442.46796	-267.59630	-979.11774	1509.63364	-339.38965	-878.96912	1655.14648	-174.75651	-1020.11635	1643.85635	-266.11055	-894.12552	1644.20715	-343.92708	-1068.19801	1422.58835	-143.31583	-1085.77278	1090.44350	-110.40688	-1162.70325	1080.68298	-126.73571	-1143.74290	1072.51244	-187.45008	-1100.88791	866.30096	-90.24499	-1057.36198	877.94373	-85.41134	-1048.27789	877.48222	-128.14606	-861.20392	1459.23904	-476.07903	-858.29834	1152.46468	-612.16530	-867.45392	1126.51917	-541.80058	-789.89677	1157.99011	-579.31179	-727.55310	915.77652	-544.21070	-717.03949	914.73686	-590.97820	-1081.87363	915.33791	-200.61092	-855.40497	899.58168	-494.12773	-972.29950	416.16966	-253.00945	-1060.00557	440.74368	-260.38973	-970.78346	435.98289	-348.17341	-765.54085	435.39299	-447.67052	-856.17271	466.12141	-496.46843	-829.72450	428.16799	-376.30653	-995.30975	176.60044	-286.43890	-969.52957	181.42637	-347.67124	-1052.85973	172.14180	-334.21917	-833.17055	176.24308	-496.05625	-912.28928	187.27152	-490.53848	-862.83531	181.98164	-433.09811	216.31657	1036.60744	286.33371	249.70631	1050.84290	132.88689	410.04524	1052.57401	157.49105	337.80895	1049.40079	325.49713	279.21745	1380.44754	233.21678	413.02723	1411.96869	257.20280	239.34887	1602.28302	191.76649	400.77042	1553.65158	156.24126	353.04596	1565.89020	312.02526	395.75413	1368.64487	73.73615	369.86809	1076.59935	17.38489	430.19382	1061.02646	36.02644	369.87030	1056.01212	74.12931	302.25670	837.75581	-15.12859	339.04125	835.37140	9.63240	276.72794	848.69537	16.11991	275.13885	1365.05295	392.51247	248.16048	1065.46661	445.13836	295.83786	1053.62831	434.46552	239.49051	1061.14334	391.87874	175.91972	842.58408	426.57997	139.66861	860.02335	402.76920	192.25353	847.44583	386.36600	381.18717	883.71185	61.08517	252.70559	884.81506	377.99026	377.09694	416.85108	205.99960	426.00750	456.11626	115.99770	328.45654	408.38436	107.08673	368.62236	455.69920	242.85046	336.19350	476.84727	358.44910	269.48410	423.95111	268.39466	387.21367	172.36034	100.02338	390.49854	165.60408	171.43795	463.35922	163.27389	127.87967	311.40743	169.90751	299.35627	359.21566	169.56074	350.72533	381.60290	176.33724	266.38777	-761.07353	907.89841	-604.62845 
5	43.567	-814.03366	1088.32901	-397.15347	-891.93985	1085.86342	-202.51665	-1086.28647	1116.82907	-251.92383	-991.80893	1117.77054	-478.71525	-895.81314	1443.13782	-269.51468	-980.06065	1509.69452	-340.81116	-877.50748	1656.93619	-179.04884	-1021.17844	1643.86093	-266.48853	-897.11685	1644.33685	-347.68215	-1068.02101	1422.94998	-143.87876	-1083.30276	1090.81711	-110.13972	-1160.45837	1080.50453	-125.22027	-1142.44919	1072.38831	-186.22478	-1095.76271	866.61674	-90.08867	-1052.25784	878.68889	-85.90231	-1043.95897	878.45757	-128.67638	-862.08633	1459.10782	-477.79942	-858.81851	1151.97388	-612.99541	-868.44246	1126.28456	-542.91939	-790.47112	1157.58255	-580.05718	-728.48221	915.48431	-544.13582	-717.84241	914.18839	-590.84675	-1080.71457	915.34134	-200.75916	-854.27139	899.62936	-493.92502	-971.79688	416.10527	-252.77794	-1059.31335	440.81207	-260.28177	-969.94995	435.95398	-348.00594	-767.00859	434.97063	-447.29790	-857.68860	465.60177	-496.52794	-831.33049	427.66495	-375.83309	-995.05447	176.64877	-286.32929	-969.18259	181.40413	-347.64713	-1052.50320	172.24094	-334.24469	-834.01726	175.64203	-495.45887	-913.54263	186.55781	-490.14931	-863.99254	181.63588	-431.90479	216.98967	1036.70914	286.98864	251.10353	1050.74135	133.66895	411.98902	1052.50732	158.36699	338.16479	1049.34898	326.68907	279.68088	1380.20096	233.17839	413.49068	1411.72211	257.16440	239.08142	1602.00134	193.34047	400.99899	1554.60739	157.74946	352.79949	1565.20355	313.56958	396.67809	1368.18451	74.46139	367.85400	1077.28867	15.32384	428.15754	1060.34401	32.88810	368.09422	1056.52832	71.72465	290.37914	841.63406	-15.43938	328.78410	838.89542	6.72279	266.46992	852.89391	17.03882	275.15741	1365.27939	392.49165	247.47759	1065.77858	445.38460	295.44016	1054.00681	434.89822	239.25495	1061.43112	392.09373	175.39349	842.94022	426.70525	139.26656	860.32349	402.72568	191.71837	847.75719	386.43257	382.10392	883.77831	62.38700	252.36988	884.68544	378.60832	376.83468	416.73985	206.24779	425.84084	456.16405	116.36202	328.24089	408.50903	107.21453	369.07600	455.75436	243.73734	336.47461	476.71757	359.30328	269.98135	423.88134	269.06265	387.15740	172.40940	100.11683	390.59532	165.57039	171.43909	463.25783	163.33347	128.02493	311.50126	169.89820	299.56675	359.31152	169.39915	350.92110	381.84875	176.33114	266.70324	-761.84341	907.35420	-604.58351 
